<!DOCTYPE svg PUBLIC "-//W3C//DTD SVG 20010904//EN" "http://www.w3.org/TR/2001/REC-SVG-20010904/DTD/svg10.dtd">
<svg version="1.0" xmlns="http://www.w3.org/2000/svg" width="1200px" height="960px" viewBox="0 0 12000 9600" preserveAspectRatio="xMidYMid meet">
<g id="layer101" fill="#8f0609" stroke="none">
<path d="M4175 8989 c-375 -7 -647 -17 -1100 -39 -104 -5 -354 -14 -555 -20 -201 -6 -372 -12 -380 -15 -8 -2 -91 -9 -185 -15 -203 -12 -439 -36 -552 -55 -105 -18 -242 -63 -270 -88 -34 -31 -30 -69 11 -101 19 -14 40 -26 47 -26 7 0 38 -9 68 -19 31 -11 97 -27 146 -35 199 -34 873 -83 1282 -95 150 -4 275 -10 278 -12 2 -3 0 -21 -5 -40 -6 -22 -10 -759 -10 -2050 l0 -2016 -55 -6 c-62 -6 -93 -26 -129 -82 -25 -37 -26 -45 -26 -187 l0 -147 -69 -55 c-38 -31 -91 -76 -118 -101 -26 -25 -63 -59 -80 -75 -25 -23 -33 -39 -33 -64 0 -72 76 -388 132 -551 12 -33 54 -126 94 -206 l74 -146 0 -99 c0 -93 2 -103 29 -146 43 -67 93 -88 212 -88 82 0 100 -3 143 -26 103 -55 333 -119 481 -134 123 -12 335 -44 335 -50 0 -3 -35 -18 -77 -32 -290 -100 -351 -133 -476 -255 -71 -69 -107 -158 -107 -263 0 -68 15 -123 47 -175 104 -167 123 -200 123 -210 1 -5 30 -55 66 -110 35 -55 73 -119 84 -142 11 -24 39 -73 63 -110 24 -38 59 -94 76 -125 34 -61 63 -87 153 -137 79 -45 203 -59 389 -44 145 11 242 37 354 96 33 17 78 40 100 51 55 27 191 133 264 206 72 73 224 257 251 306 11 19 45 67 75 107 30 39 62 85 70 102 8 16 58 89 112 160 84 112 109 137 176 183 43 28 84 52 90 51 7 0 26 -19 42 -42 44 -61 90 -82 205 -96 138 -17 252 4 312 57 16 13 21 12 50 -11 54 -41 192 -179 223 -222 16 -22 32 -42 36 -45 3 -3 49 -69 101 -147 53 -77 105 -151 116 -163 12 -13 28 -38 37 -57 10 -19 31 -51 49 -72 18 -20 62 -74 97 -121 129 -172 307 -318 409 -336 19 -4 60 -13 90 -20 70 -18 184 -17 235 1 22 8 48 15 58 15 36 0 319 311 424 467 15 23 51 69 78 104 28 34 55 69 60 78 17 26 69 94 92 119 102 110 50 243 -194 495 -47 49 -84 89 -82 91 4 2 64 34 251 131 95 49 205 116 237 144 13 12 28 21 33 21 12 0 92 55 116 79 9 10 35 31 56 47 l39 29 197 5 c187 5 198 6 232 29 19 13 45 38 56 56 21 30 22 42 22 244 l0 213 33 47 c69 95 148 273 204 456 23 78 27 108 27 227 1 75 -2 139 -5 142 -3 3 -19 1 -36 -4 -34 -12 -67 -64 -77 -122 -4 -20 -37 -96 -74 -170 l-67 -133 -5 435 c-5 415 -6 436 -25 462 -26 34 -60 54 -107 63 l-38 7 0 2018 c0 1710 -2 2024 -14 2057 l-14 40 116 7 c65 4 178 11 252 16 74 5 241 16 370 25 129 8 260 20 291 25 30 6 71 10 90 10 50 0 247 36 298 54 24 9 51 16 60 16 9 0 34 15 56 34 36 30 39 36 30 61 -6 14 -21 33 -35 40 -115 64 -259 92 -580 115 -74 5 -175 14 -225 19 -49 6 -202 15 -340 21 -856 36 -1242 51 -1570 61 -445 14 -3327 20 -3890 8z"/>
</g>
<g id="layer102" fill="#6f2c2d" stroke="none">
<path d="M4175 8989 c-375 -7 -647 -17 -1100 -39 -104 -5 -354 -14 -555 -20 -201 -6 -372 -12 -380 -15 -8 -2 -91 -9 -185 -15 -203 -12 -439 -36 -552 -55 -105 -18 -242 -63 -270 -88 -34 -31 -30 -69 11 -101 19 -14 40 -26 47 -26 7 0 38 -9 68 -19 31 -11 97 -27 146 -35 199 -34 873 -83 1282 -95 150 -4 275 -10 278 -12 2 -3 0 -21 -5 -40 -6 -22 -10 -759 -10 -2050 l0 -2016 -55 -6 c-62 -6 -93 -26 -129 -82 -25 -38 -26 -45 -26 -190 0 -134 -2 -154 -18 -168 -10 -10 -22 -17 -26 -17 -8 0 -27 -15 -59 -46 -12 -11 -37 -30 -55 -43 -18 -12 -30 -26 -27 -31 3 -4 -15 -20 -39 -34 -64 -38 -79 -66 -71 -135 10 -90 32 -185 81 -361 37 -134 62 -197 130 -336 l84 -172 0 -97 c0 -87 3 -103 25 -141 42 -71 81 -88 217 -94 106 -5 115 -4 100 11 -10 8 -26 21 -37 27 -17 11 -11 12 35 8 81 -8 353 -20 369 -17 22 4 341 -43 536 -79 168 -31 393 -40 508 -21 133 23 445 127 455 153 2 4 8 8 14 8 6 0 27 12 46 28 20 15 45 33 56 40 18 11 14 12 -29 6 -27 -3 -93 -14 -145 -24 -52 -10 -115 -21 -140 -25 l-45 -6 31 15 c18 8 34 19 38 24 3 6 15 8 26 5 12 -3 20 0 20 6 0 7 6 11 13 10 6 -2 30 3 52 9 56 17 304 59 395 67 l76 6 0 289 c0 159 3 292 8 297 4 4 16 -3 27 -16 17 -20 19 -40 19 -170 l0 -146 38 -2 c51 -3 112 -12 122 -18 5 -3 31 -9 58 -15 46 -8 134 -43 193 -75 14 -8 29 -12 33 -8 3 3 6 2 6 -4 0 -6 13 -13 29 -16 16 -4 58 -19 93 -36 71 -33 188 -56 263 -52 141 8 271 -6 371 -39 24 -8 48 -7 99 5 63 14 91 13 80 -4 -2 -5 6 -6 18 -4 22 4 22 3 20 -94 -2 -54 -5 -106 -7 -116 -11 -46 36 -120 114 -179 78 -59 343 -187 482 -232 67 -22 175 -46 207 -46 15 0 32 -5 39 -12 7 -7 12 -9 12 -6 0 3 28 -1 63 -8 34 -7 85 -13 113 -14 28 0 54 -3 57 -6 14 -15 163 -4 191 13 13 9 60 14 52 6 -3 -3 10 -23 29 -45 19 -21 35 -42 35 -47 0 -25 -103 -40 -291 -42 -126 -1 -159 -5 -232 -26 l-85 -26 -113 65 c-126 72 -321 173 -414 213 -169 74 -385 136 -385 109 0 -10 -14 -12 -64 -7 l-65 6 -6 -39 c-14 -86 -18 -101 -44 -154 -43 -86 -126 -164 -168 -156 -12 3 -23 -5 -30 -21 -12 -25 -12 -25 7 -8 12 11 24 14 34 8 29 -16 218 -198 231 -223 7 -14 23 -35 34 -47 11 -12 63 -85 116 -163 53 -78 104 -151 115 -162 10 -11 26 -36 35 -55 10 -19 31 -51 49 -72 18 -20 56 -67 85 -106 99 -131 180 -213 269 -272 48 -32 105 -64 127 -70 127 -38 235 -53 235 -34 0 5 28 47 63 93 34 46 70 94 80 108 10 14 37 50 60 81 23 31 65 86 92 123 28 37 82 109 121 161 39 51 92 127 117 168 l47 75 103 4 c76 2 110 8 130 21 14 9 33 17 41 17 23 0 29 59 11 110 -23 66 -39 100 -46 100 -4 0 -16 15 -26 33 -26 42 -110 138 -226 260 -17 17 -16 31 1 32 14 1 193 98 188 102 -2 3 -15 -3 -28 -11 -14 -9 -27 -13 -31 -10 -11 11 5 34 23 34 10 0 25 11 33 24 14 21 128 137 271 275 171 165 319 331 349 390 10 20 26 51 37 69 11 17 15 32 10 32 -5 0 -38 -16 -74 -35 -123 -68 -393 -147 -551 -161 l-80 -7 19 21 c10 12 21 21 25 20 28 -6 314 69 410 108 234 93 442 265 577 476 l45 69 -1 447 c0 442 -1 447 -22 478 -27 39 -60 60 -110 69 l-38 7 0 2018 c0 1710 -2 2024 -14 2057 l-14 40 116 7 c65 4 178 11 252 16 74 5 241 16 370 25 129 8 260 20 291 25 30 6 71 10 90 10 50 0 247 36 298 54 24 9 51 16 60 16 9 0 34 15 56 34 36 30 39 36 30 61 -6 14 -21 33 -35 40 -115 64 -259 92 -580 115 -74 5 -175 14 -225 19 -49 6 -202 15 -340 21 -856 36 -1242 51 -1570 61 -445 14 -3327 20 -3890 8z m2682 -724 c2 -266 -1 -446 -7 -455 -8 -13 -11 -12 -24 5 -13 17 -15 66 -16 301 0 155 -3 301 -6 326 l-6 44 -182 12 c-190 13 -403 35 -496 53 -30 5 -93 16 -140 25 -47 8 -121 23 -165 33 -76 19 -224 42 -347 57 l-58 6 0 -42 c0 -40 -1 -42 -24 -36 -22 5 -25 2 -29 -26 -2 -18 -5 1 -5 43 -1 47 2 79 10 87 9 9 185 12 753 10 l740 -3 2 -440z m-1453 -3266 c3 -17 6 -143 6 -279 l0 -247 68 -6 c37 -4 193 -8 347 -8 385 -2 622 -12 570 -23 -22 -5 -47 -14 -55 -21 -8 -6 -23 -15 -32 -18 -21 -7 -24 -27 -5 -28 48 -2 -204 -49 -313 -58 -115 -10 -532 -30 -610 -31 l-25 0 -3 183 c-2 100 0 269 4 375 6 174 8 192 24 192 12 0 20 -10 24 -31z m1456 -604 c0 -25 -4 -31 -25 -33 -22 -2 -25 2 -25 32 0 30 3 34 25 32 21 -1 25 -6 25 -31z m-10 -1665 c4 0 10 -9 13 -19 3 -14 -2 -21 -17 -25 -34 -9 -36 -8 -36 25 0 24 3 30 16 25 9 -3 19 -6 24 -6z m1632 -1203 c-5 -7 -10 -25 -10 -41 0 -17 -7 -35 -18 -43 -20 -15 -110 -18 -119 -4 -7 13 36 45 91 68 44 17 45 19 39 53 l-5 35 16 -28 c10 -19 12 -32 6 -40z"/>
</g>
<g id="layer103" fill="#d10c11" stroke="none">
<path d="M4175 8989 c-375 -7 -647 -17 -1100 -39 -104 -5 -354 -14 -555 -20 -201 -6 -372 -12 -380 -15 -8 -2 -91 -9 -185 -15 -203 -12 -439 -36 -552 -55 -105 -18 -242 -63 -270 -88 -34 -31 -30 -69 11 -101 19 -14 40 -26 47 -26 7 0 38 -9 68 -19 31 -11 97 -27 146 -35 199 -34 873 -83 1282 -95 150 -4 275 -10 278 -12 2 -3 0 -21 -5 -40 -6 -22 -10 -759 -10 -2050 l0 -2016 -55 -6 c-62 -6 -93 -26 -129 -82 -25 -38 -26 -45 -26 -190 0 -134 -2 -154 -18 -168 -10 -10 -22 -17 -26 -17 -8 0 -27 -15 -59 -46 -12 -11 -37 -30 -55 -43 -18 -12 -30 -26 -27 -31 3 -4 -15 -20 -39 -34 -64 -38 -79 -66 -71 -135 10 -90 32 -185 81 -361 37 -134 62 -197 130 -336 l84 -172 0 -97 c0 -87 3 -103 25 -141 42 -71 81 -88 217 -94 106 -5 115 -4 100 11 -10 8 -26 21 -37 27 -17 11 -11 12 35 8 81 -8 353 -20 369 -17 22 4 341 -43 536 -79 168 -31 393 -40 508 -21 133 23 445 127 455 153 2 4 8 8 14 8 6 0 27 12 46 28 20 15 45 33 56 40 18 11 14 12 -29 6 -27 -3 -93 -14 -145 -24 -52 -10 -115 -21 -140 -25 l-45 -6 31 15 c18 8 34 19 38 24 3 6 15 8 26 5 12 -3 20 0 20 6 0 7 6 11 13 10 6 -2 30 3 52 9 50 15 308 59 396 67 l66 6 6 291 c3 159 9 293 12 297 4 3 15 -5 26 -18 17 -20 19 -40 19 -170 l0 -146 38 -2 c51 -3 112 -12 122 -18 5 -3 31 -9 58 -15 46 -8 134 -43 193 -75 14 -8 29 -12 33 -8 3 3 6 2 6 -4 0 -6 13 -13 29 -16 16 -4 58 -19 93 -36 71 -33 188 -56 263 -52 141 8 271 -6 371 -39 24 -8 48 -7 99 5 63 14 91 13 80 -4 -2 -5 6 -6 18 -4 22 4 22 3 20 -94 -2 -54 -5 -106 -7 -116 -11 -46 36 -120 114 -179 78 -59 343 -187 482 -232 67 -22 175 -46 207 -46 15 0 32 -5 39 -12 7 -7 12 -9 12 -6 0 3 28 -1 63 -8 34 -7 85 -13 113 -14 28 0 54 -3 57 -6 14 -15 163 -4 191 13 13 9 60 14 52 6 -3 -3 10 -23 29 -45 19 -21 35 -42 35 -47 0 -25 -103 -40 -291 -42 -126 -1 -159 -5 -232 -26 l-85 -26 -113 65 c-126 72 -321 173 -414 213 -169 74 -385 136 -385 109 0 -10 -14 -12 -64 -7 l-65 6 -6 -39 c-14 -86 -18 -101 -44 -154 -43 -86 -126 -164 -168 -156 -12 3 -23 -5 -30 -21 -12 -25 -12 -25 7 -8 12 11 24 14 34 8 29 -16 218 -198 231 -223 7 -14 23 -35 34 -47 11 -12 63 -85 116 -163 53 -78 104 -151 115 -162 10 -11 26 -36 35 -55 10 -19 31 -51 49 -72 18 -20 56 -67 85 -106 99 -131 180 -213 269 -272 48 -32 105 -64 127 -70 127 -38 235 -53 235 -34 0 5 28 47 63 93 34 46 70 94 80 108 10 14 37 50 60 81 23 31 65 86 92 123 28 37 82 109 121 161 39 51 92 127 117 168 l47 75 103 4 c76 2 110 8 130 21 14 9 33 17 41 17 23 0 29 59 11 110 -23 66 -39 100 -46 100 -4 0 -16 15 -26 33 -26 42 -110 138 -226 260 -17 17 -16 31 1 32 14 1 193 98 188 102 -2 3 -15 -3 -28 -11 -14 -9 -27 -13 -31 -10 -11 11 5 34 23 34 10 0 25 11 33 24 14 21 128 137 271 275 171 165 319 331 349 390 10 20 26 51 37 69 11 17 15 32 10 32 -5 0 -38 -16 -74 -35 -123 -68 -393 -147 -551 -161 l-80 -7 19 21 c10 12 21 21 25 20 28 -6 314 69 410 108 234 93 442 265 577 476 l45 69 -1 447 c0 442 -1 447 -22 478 -27 39 -60 60 -110 69 l-38 7 0 2018 c0 1710 -2 2024 -14 2057 l-14 40 116 7 c65 4 178 11 252 16 74 5 241 16 370 25 129 8 260 20 291 25 30 6 71 10 90 10 50 0 247 36 298 54 24 9 51 16 60 16 9 0 34 15 56 34 36 30 39 36 30 61 -6 14 -21 33 -35 40 -115 64 -259 92 -580 115 -74 5 -175 14 -225 19 -49 6 -202 15 -340 21 -856 36 -1242 51 -1570 61 -445 14 -3327 20 -3890 8z m2685 -721 c0 -261 -4 -449 -10 -458 -8 -13 -11 -12 -24 5 -13 17 -15 66 -16 301 0 155 -3 301 -6 326 l-6 44 -182 12 c-190 13 -403 35 -496 53 -30 5 -93 16 -140 25 -47 8 -121 23 -165 33 -76 19 -224 42 -347 57 l-58 6 0 -42 c0 -40 -1 -42 -24 -36 -22 5 -25 2 -29 -26 -2 -18 -5 3 -5 48 -1 44 1 84 5 87 3 4 343 7 755 7 l748 0 0 -442z m-1456 -3269 c3 -17 6 -143 6 -279 l0 -247 68 -6 c37 -4 193 -8 347 -8 385 -2 622 -12 570 -23 -22 -5 -47 -14 -55 -21 -8 -6 -23 -15 -32 -18 -21 -7 -24 -27 -5 -28 48 -2 -204 -49 -313 -58 -116 -10 -531 -30 -612 -31 l-28 0 0 233 c0 127 3 296 7 375 5 125 8 142 23 142 12 0 20 -11 24 -31z m1462 -613 c-3 -14 -14 -22 -31 -24 -22 -2 -25 2 -25 34 0 31 3 35 20 29 14 -4 22 -1 27 12 7 16 8 15 11 -6 2 -12 1 -33 -2 -45z m-16 -1656 c4 0 10 -9 13 -19 3 -14 -2 -21 -17 -25 -34 -9 -36 -8 -36 25 0 24 3 30 16 25 9 -3 19 -6 24 -6z m1632 -1203 c-5 -7 -10 -25 -10 -41 0 -17 -7 -35 -18 -43 -20 -15 -110 -18 -119 -4 -7 13 36 45 91 68 44 17 45 19 39 53 l-5 35 16 -28 c10 -19 12 -32 6 -40z"/>
<path d="M9374 2859 c-85 -113 -216 -252 -333 -356 -47 -42 -88 -81 -90 -85 -2 -5 82 -8 191 -6 187 3 196 4 230 27 19 13 45 39 57 56 21 31 21 40 19 245 l-3 213 -71 -94z"/>
<path d="M3110 2395 c0 -7 61 -37 66 -33 2 3 -12 12 -31 21 -19 9 -35 15 -35 12z"/>
<path d="M5850 2379 c-22 -14 -31 -28 -36 -59 -4 -23 -13 -48 -21 -56 -19 -19 -19 -165 0 -289 8 -49 10 -92 5 -93 -4 -2 2 -12 14 -23 20 -16 21 -18 5 -19 -10 0 -15 5 -12 10 3 6 1 10 -4 10 -18 0 -13 -13 20 -53 30 -37 95 -78 121 -76 7 0 3 4 -9 9 -36 15 -27 27 15 21 23 -4 37 -12 37 -21 0 -8 8 -16 18 -18 9 -2 17 1 17 7 0 6 -7 7 -17 4 -11 -4 -14 -3 -9 5 4 7 18 12 32 12 18 0 23 -4 18 -12 -6 -10 -5 -10 7 -1 9 7 33 11 54 9 22 -1 59 1 84 6 26 5 51 10 57 12 6 1 23 10 37 19 15 10 27 15 27 11 0 -14 41 46 56 81 8 20 28 95 45 167 l29 132 -20 62 c-12 34 -20 74 -18 89 2 20 -4 33 -25 49 -27 20 -40 21 -262 22 -211 1 -237 -1 -265 -17z m49 -611 c1 -5 -3 -8 -9 -8 -5 0 -10 5 -10 11 0 5 -4 8 -9 5 -10 -7 -53 38 -45 47 7 7 72 -43 73 -55z"/>
<path d="M4655 2324 c-135 -12 -304 -38 -445 -70 -85 -20 -184 -42 -220 -50 -36 -7 -96 -24 -135 -38 -38 -14 -108 -39 -154 -55 -95 -34 -234 -114 -256 -148 -9 -13 -21 -23 -28 -23 -14 0 -68 -63 -95 -111 -29 -53 -45 -134 -40 -209 3 -37 9 -74 14 -81 5 -8 9 -19 10 -26 3 -16 37 -62 47 -63 5 0 27 -13 50 -29 37 -25 132 -67 194 -85 23 -7 114 -131 232 -316 75 -119 113 -176 131 -197 5 -7 10 -15 10 -19 0 -3 20 -37 45 -74 25 -37 45 -77 45 -89 0 -11 5 -21 10 -21 6 0 10 -4 10 -9 0 -5 -21 -7 -47 -5 l-48 3 45 -9 c59 -11 183 -12 295 -1 88 9 209 43 284 80 168 83 277 159 389 270 75 76 225 259 254 309 11 20 35 55 52 77 34 42 96 133 96 140 0 5 84 122 158 218 43 58 123 124 186 154 l35 16 -25 26 c-62 61 -83 167 -49 248 l15 36 -114 -7 c-62 -4 -139 -11 -170 -16 -31 -5 -103 -14 -159 -20 -56 -6 -150 -20 -210 -32 -59 -11 -110 -18 -113 -15 -4 3 -1 28 5 54 6 26 13 68 17 93 3 25 8 47 11 50 2 3 67 5 144 5 76 0 139 2 139 5 -1 30 -22 32 -291 35 -151 2 -296 1 -324 -1z m-1156 -509 c38 -25 74 -52 81 -60 7 -8 17 -15 23 -15 5 0 44 -21 86 -47 86 -54 113 -70 191 -111 30 -16 72 -39 93 -51 21 -11 45 -21 55 -21 22 0 -76 -66 -143 -95 -193 -86 -454 -25 -526 122 -33 66 -33 169 0 233 21 40 58 90 68 90 2 0 35 -20 72 -45z"/>
<path d="M6235 1749 c-13 -19 5 -23 38 -7 26 13 28 16 10 15 -13 -1 -23 -5 -23 -9 0 -4 -5 -8 -11 -8 -5 0 -7 5 -4 10 3 6 4 10 1 10 -3 0 -8 -5 -11 -11z"/>
<path d="M6070 1720 c0 -5 18 -10 40 -10 22 0 40 5 40 10 0 6 -18 10 -40 10 -22 0 -40 -4 -40 -10z"/>
</g>
<g id="layer104" fill="#535152" stroke="none">
<path d="M4175 8989 c-375 -7 -647 -17 -1100 -39 -104 -5 -354 -14 -555 -20 -201 -6 -372 -12 -380 -15 -8 -2 -91 -9 -185 -15 -203 -12 -439 -36 -552 -55 -105 -18 -242 -63 -270 -88 -34 -31 -30 -69 11 -101 19 -14 40 -26 47 -26 7 0 38 -9 68 -19 31 -11 97 -27 146 -35 199 -34 873 -83 1282 -95 150 -4 275 -10 278 -12 2 -3 0 -21 -5 -40 -6 -22 -10 -759 -10 -2050 l0 -2016 -55 -6 c-62 -6 -93 -26 -129 -82 -25 -37 -26 -45 -26 -187 0 -81 3 -148 8 -148 4 0 102 77 217 171 240 196 253 205 264 193 5 -5 14 -86 20 -181 48 -730 302 -1237 726 -1451 85 -42 199 -78 345 -108 179 -37 311 -31 552 24 98 22 245 48 328 58 l150 18 2 3021 3 3020 753 3 752 2 0 -2132 c1 -1173 0 -2525 0 -3003 l-1 -871 353 -17 c394 -20 804 -22 978 -7 226 21 451 68 622 130 223 81 439 257 589 478 l49 74 0 446 c0 443 0 446 -22 478 -27 39 -60 60 -110 69 l-38 7 0 2018 c0 1710 -2 2024 -14 2057 l-14 40 116 7 c65 4 178 11 252 16 74 5 241 16 370 25 129 8 260 20 291 25 30 6 71 10 90 10 50 0 247 36 298 54 24 9 51 16 60 16 9 0 34 15 56 34 36 30 39 36 30 61 -6 14 -21 33 -35 40 -115 64 -259 92 -580 115 -74 5 -175 14 -225 19 -49 6 -202 15 -340 21 -856 36 -1242 51 -1570 61 -445 14 -3327 20 -3890 8z"/>
<path d="M9380 2863 c-68 -93 -308 -344 -384 -403 -25 -19 -45 -39 -46 -43 0 -5 87 -7 193 -5 186 3 195 4 229 27 19 13 45 39 57 56 21 31 21 40 19 244 l-3 212 -65 -88z"/>
<path d="M5810 1817 c0 -2 15 -16 33 -33 l32 -29 -29 33 c-28 30 -36 37 -36 29z"/>
<path d="M6088 1713 c12 -2 32 -2 45 0 12 2 2 4 -23 4 -25 0 -35 -2 -22 -4z"/>
</g>
<g id="layer105" fill="#838383" stroke="none">
<path d="M4605 8989 c-406 -7 -976 -26 -982 -33 -2 -1 147 -3 331 -2 184 1 332 4 330 7 -7 11 622 19 1572 19 956 0 1815 -10 1739 -20 -22 -3 93 -5 255 -5 162 0 403 -3 535 -7 l240 -6 -260 13 c-745 39 -2597 56 -3760 34z"/>
<path d="M5953 8963 c26 -2 67 -2 90 0 23 2 2 3 -48 3 -49 0 -68 -1 -42 -3z"/>
<path d="M5180 8953 c41 -2 77 -7 80 -11 3 -4 46 -5 95 -2 l90 5 -109 8 c-60 4 -137 6 -170 5 -60 -2 -59 -2 14 -5z"/>
<path d="M6485 8951 c-20 -5 4 -9 75 -12 58 -3 107 -2 110 2 3 4 30 9 60 12 30 2 -6 4 -80 4 -74 0 -148 -3 -165 -6z"/>
<path d="M3383 8943 c31 -2 83 -2 115 0 31 2 5 3 -58 3 -63 0 -89 -1 -57 -3z"/>
<path d="M4655 8940 c3 -5 23 -10 43 -9 33 1 34 2 12 9 -36 12 -62 12 -55 0z"/>
<path d="M4943 8943 c9 -2 25 -2 35 0 9 3 1 5 -18 5 -19 0 -27 -2 -17 -5z"/>
<path d="M6911 8946 c8 -8 78 -10 85 -3 4 4 -14 7 -41 7 -27 0 -46 -2 -44 -4z"/>
<path d="M7175 8940 c-18 -8 -18 -9 5 -9 14 0 45 4 70 8 l45 8 -50 1 c-27 0 -59 -3 -70 -8z"/>
<path d="M3155 8931 c15 -7 7 -10 -35 -10 -30 0 -149 -6 -265 -13 -150 -9 -194 -14 -155 -18 30 -4 79 -2 109 3 36 6 66 6 91 -2 53 -16 90 -14 90 4 0 21 78 21 87 0 4 -13 15 -14 52 -9 25 4 50 13 54 20 8 15 44 18 71 8 23 -9 9 -24 -22 -25 l-27 -1 25 -8 c36 -12 59 -12 42 -1 -17 11 17 21 71 21 21 0 45 7 53 15 14 13 11 15 -23 15 -21 0 -83 2 -138 5 -67 4 -93 2 -80 -4z"/>
<path d="M4200 8930 c0 -5 12 -10 28 -9 24 0 25 1 7 9 -27 12 -35 12 -35 0z"/>
<path d="M8575 8930 c-44 -3 -72 -7 -62 -8 9 -1 17 -6 17 -12 0 -5 15 -10 33 -11 34 -1 92 -16 68 -18 -8 -1 -12 -3 -10 -5 2 -3 20 -1 39 4 31 7 32 8 8 9 -56 2 -37 31 20 31 35 0 67 -19 37 -21 -19 -1 15 -9 100 -22 22 -3 31 -4 20 -1 -40 12 -36 23 9 29 50 8 70 0 46 -16 -15 -11 60 -7 127 7 18 3 50 3 70 -1 36 -8 37 -8 13 -16 -20 -7 -17 -7 10 -3 104 16 133 21 115 22 -11 1 -126 7 -255 14 -178 10 -219 14 -170 19 52 4 43 6 -45 5 -60 0 -146 -3 -190 -6z"/>
<path d="M2650 8923 c-703 -38 -1124 -90 -1287 -159 -36 -15 -53 -55 -33 -79 31 -38 176 -80 343 -101 59 -7 110 -15 115 -17 21 -13 915 -78 1045 -76 53 1 9 6 -123 15 -609 39 -930 71 -1056 104 -41 11 -83 20 -94 20 -28 0 -90 33 -114 59 -20 22 -20 22 10 52 71 70 434 124 1094 163 360 22 369 23 255 22 -55 0 -125 -1 -155 -3z"/>
<path d="M3472 8917 c15 -14 142 -11 132 4 -3 5 -37 9 -75 9 -57 0 -68 -2 -57 -13z"/>
<path d="M3710 8920 c0 -9 138 -3 149 6 2 2 -30 4 -72 4 -45 0 -77 -4 -77 -10z"/>
<path d="M3940 8920 c-50 -11 1 -11 60 -1 41 8 42 8 10 8 -19 0 -51 -3 -70 -7z"/>
<path d="M5453 8923 c15 -2 39 -2 55 0 15 2 2 4 -28 4 -30 0 -43 -2 -27 -4z"/>
<path d="M6393 8923 c15 -2 37 -2 50 0 12 2 0 4 -28 4 -27 0 -38 -2 -22 -4z"/>
<path d="M6703 8923 c9 -2 25 -2 35 0 9 3 1 5 -18 5 -19 0 -27 -2 -17 -5z"/>
<path d="M6903 8923 c9 -2 25 -2 35 0 9 3 1 5 -18 5 -19 0 -27 -2 -17 -5z"/>
<path d="M8031 8926 c2 -2 49 -6 104 -9 57 -3 89 -2 75 3 -24 8 -188 14 -179 6z"/>
<path d="M8315 8920 c-4 -6 11 -10 37 -10 24 0 54 -3 67 -7 16 -4 22 -3 17 5 -3 6 2 13 11 15 10 3 -14 5 -54 6 -39 0 -75 -3 -78 -9z"/>
<path d="M9100 8920 c58 -4 143 -7 190 -7 l85 0 -90 8 c-49 4 -135 7 -190 6 l-100 0 105 -7z"/>
<path d="M7958 8913 c12 -2 32 -2 45 0 12 2 2 4 -23 4 -25 0 -35 -2 -22 -4z"/>
<path d="M9390 8904 c8 -2 112 -10 230 -19 373 -27 667 -63 695 -85 6 -4 26 -11 45 -15 41 -9 92 -33 102 -49 31 -46 -32 -88 -182 -120 -183 -40 -287 -51 -759 -86 -272 -20 -284 -20 -296 -3 -10 13 -10 20 -2 25 8 5 6 8 -6 8 -9 0 -33 17 -51 38 -19 21 -59 51 -88 68 l-53 29 -1077 3 -1077 2 -6 -52 c-3 -29 -5 -978 -3 -2108 3 -1913 4 -2057 20 -2086 24 -43 53 -52 204 -59 73 -4 174 -13 225 -20 92 -12 87 -13 -178 -14 l-273 -1 0 -828 0 -828 353 -17 c393 -20 803 -22 977 -7 226 21 451 68 622 130 223 81 439 257 589 479 l50 74 -3 454 -3 454 -41 39 c-28 25 -54 40 -82 45 l-42 7 0 2019 c0 1948 -1 2021 -19 2068 l-18 49 106 7 c58 3 162 10 231 16 69 5 186 14 260 20 319 23 632 75 703 116 33 20 58 58 51 77 -7 17 -179 77 -253 87 -36 5 -74 12 -84 15 -27 8 -246 33 -397 44 -74 6 -173 15 -220 20 -78 9 -284 12 -250 4z"/>
<path d="M2550 8880 c30 -4 73 -10 95 -14 35 -6 34 -5 -10 8 -27 8 -70 15 -95 14 l-45 -1 55 -7z"/>
<path d="M9280 8880 c0 -7 19 -8 53 -4 70 9 72 14 4 14 -33 0 -57 -4 -57 -10z"/>
<path d="M2365 8875 c22 -8 134 -11 123 -3 -7 4 -40 7 -73 7 -33 0 -55 -2 -50 -4z"/>
<path d="M9483 8873 c26 -2 46 -7 43 -11 -2 -4 21 -5 52 -3 l57 5 -50 7 c-27 4 -72 7 -100 6 l-50 -1 48 -3z"/>
<path d="M2210 8859 c-28 -4 -11 -5 45 -2 50 3 92 7 94 9 7 6 -90 2 -139 -7z"/>
<path d="M9815 8840 c216 -29 399 -74 426 -106 16 -19 5 -41 -33 -64 -45 -27 -86 -37 -338 -80 -52 -9 -51 -9 20 -4 41 3 119 14 174 25 54 10 107 19 117 19 36 0 129 48 138 72 5 13 5 24 0 26 -5 2 -7 7 -4 12 3 4 -12 12 -33 18 -20 6 -70 20 -109 31 -80 23 -303 57 -428 65 -49 3 -22 -2 70 -14z"/>
<path d="M1948 8830 c-215 -33 -310 -58 -342 -89 -16 -16 -26 -36 -23 -43 7 -19 110 -68 142 -68 13 0 62 -9 107 -19 46 -11 119 -22 163 -24 44 -3 69 -4 55 -1 -272 49 -340 67 -371 100 -11 11 -17 28 -14 36 15 39 168 82 395 112 69 9 88 14 55 14 -27 0 -103 -8 -167 -18z"/>
<path d="M1793 8764 c-17 -9 -40 -25 -50 -36 -17 -19 -17 -21 10 -44 37 -31 57 -31 27 0 -29 32 -22 48 32 75 23 11 36 21 28 21 -8 0 -29 -8 -47 -16z"/>
<path d="M1913 8758 c-53 -27 -63 -52 -32 -77 24 -19 127 -56 135 -48 3 2 -15 10 -39 16 -24 7 -57 23 -73 36 -26 20 -27 24 -14 40 8 10 33 26 55 36 22 10 33 19 25 19 -8 0 -34 -10 -57 -22z"/>
<path d="M9950 8763 c77 -27 82 -61 13 -98 -52 -28 -20 -24 36 4 71 36 62 69 -26 96 -64 19 -80 18 -23 -2z"/>
<path d="M10118 8744 c27 -19 28 -36 2 -59 -11 -10 -18 -20 -16 -23 7 -7 66 38 66 50 0 15 -40 48 -59 48 -11 0 -9 -4 7 -16z"/>
<path d="M9838 8738 c17 -17 15 -38 -5 -55 -16 -13 -16 -13 5 -3 13 6 26 18 29 25 5 14 -18 45 -33 45 -5 0 -3 -5 4 -12z"/>
<path d="M2030 8709 c0 -8 15 -23 33 -33 23 -13 27 -13 12 -1 -11 8 -26 23 -32 32 -11 14 -13 14 -13 2z"/>
<path d="M3210 8691 c-79 -25 -156 -83 -200 -149 -23 -35 -39 -49 -63 -53 l-32 -6 31 -2 32 -1 -14 -37 c-11 -31 -13 -398 -14 -2060 l0 -2023 -37 0 c-52 0 -114 -33 -143 -77 -24 -34 -25 -45 -28 -190 -2 -84 0 -153 5 -153 4 0 103 77 218 171 240 196 253 205 264 193 5 -5 14 -86 20 -181 48 -730 302 -1237 726 -1451 85 -42 199 -78 345 -108 179 -37 311 -31 552 24 98 22 245 48 328 58 l150 18 0 848 0 848 -22 0 -21 0 21 23 22 23 -2 2125 -3 2124 -25 11 c-14 7 -72 15 -130 19 -158 10 -1951 15 -1980 6z"/>
<path d="M1839 8645 c18 -8 38 -15 45 -15 6 1 -4 7 -23 15 -18 8 -38 15 -45 15 -6 -1 4 -7 23 -15z"/>
<path d="M2130 8570 c25 -5 88 -11 140 -14 l95 -5 -115 14 c-123 15 -194 17 -120 5z"/>
<path d="M9685 8570 c-39 -7 -38 -7 15 -7 30 -1 69 3 85 7 27 7 25 8 -15 7 -25 0 -63 -3 -85 -7z"/>
<path d="M2780 8555 c0 -15 -19 -22 -80 -28 -23 -3 -16 -4 21 -5 30 -1 59 2 65 7 5 5 18 11 29 14 18 4 17 5 -3 6 -13 0 -20 6 -17 11 3 6 1 10 -4 10 -6 0 -11 -7 -11 -15z"/>
<path d="M9350 8560 c34 -11 60 -11 35 0 -11 5 -29 8 -40 8 -16 0 -15 -2 5 -8z"/>
<path d="M9514 8562 c5 -9 -9 -12 -51 -14 -35 -1 -44 -3 -23 -5 19 -2 71 1 115 6 62 6 69 9 33 10 -25 0 -54 4 -64 8 -12 4 -15 3 -10 -5z"/>
<path d="M2430 8550 l-55 -7 55 -1 c30 -1 62 3 70 8 17 11 21 11 -70 0z"/>
<path d="M2560 8540 l-65 -7 67 -1 c37 -1 70 3 73 8 3 6 3 9 -2 8 -4 -1 -37 -4 -73 -8z"/>
<path d="M2930 8534 c0 -8 -16 -14 -42 -17 -34 -3 -29 -4 20 -5 36 -1 61 2 58 7 -4 5 0 11 6 13 7 3 1 7 -14 10 -19 4 -28 1 -28 -8z"/>
<path d="M9255 8539 c4 -5 31 -9 62 -9 70 0 66 5 -10 13 -34 3 -55 2 -52 -4z"/>
<path d="M9380 2863 c-68 -93 -308 -344 -384 -403 -25 -19 -45 -38 -46 -42 0 -15 358 -9 393 6 45 18 96 74 102 110 3 17 5 118 3 224 l-3 193 -65 -88z"/>
<path d="M2740 2654 c0 -104 2 -113 29 -156 42 -67 93 -88 209 -88 51 0 92 3 92 8 0 4 -26 25 -56 47 -65 46 -157 142 -221 229 -25 34 -47 63 -49 65 -2 2 -4 -45 -4 -105z"/>
</g>
<g id="layer106" fill="#b7b6b7" stroke="none">
<path d="M3202 8681 c-103 -38 -171 -97 -219 -191 l-28 -55 -3 -2037 -2 -2038 -37 0 c-52 0 -114 -33 -143 -77 -24 -34 -25 -45 -28 -190 -2 -84 0 -153 3 -153 4 0 39 26 79 58 199 162 284 231 330 269 78 64 83 61 90 -54 31 -512 127 -868 312 -1155 55 -86 177 -214 268 -281 67 -50 220 -122 283 -133 15 -3 55 -11 88 -19 102 -24 114 -25 305 -31 102 -3 214 -7 250 -8 42 -2 111 8 195 26 72 16 183 35 248 42 65 8 121 17 124 20 3 3 12 31 19 63 11 46 14 211 14 818 0 418 -3 770 -6 783 l-6 22 -597 1 c-328 1 -571 5 -541 9 174 23 424 45 690 60 416 24 401 22 422 50 11 16 22 56 28 110 7 56 10 736 8 2005 l-3 1920 -22 48 -22 47 -78 1 c-43 1 -96 2 -118 4 -22 1 -105 6 -185 9 -214 10 -500 34 -625 53 -88 13 -205 17 -575 20 -438 3 -468 2 -518 -16z"/>
<path d="M6911 8666 c-12 -18 -26 -57 -31 -86 -13 -71 -13 -3260 0 -3589 17 -424 33 -501 102 -501 203 -2 922 -88 1001 -120 13 -5 -203 -9 -526 -9 l-547 -1 -10 -24 c-21 -57 -30 -294 -30 -836 0 -506 6 -696 25 -777 5 -22 11 -23 88 -23 45 0 150 -5 232 -10 83 -6 259 -10 392 -11 206 0 256 3 325 20 100 23 164 35 198 36 14 0 39 4 55 7 17 4 53 10 80 13 28 3 64 10 80 15 83 25 262 51 375 53 111 3 132 6 183 30 172 79 378 259 490 429 l58 86 -3 452 -3 451 -41 39 c-28 25 -54 40 -82 45 l-42 7 0 2019 0 2018 -21 56 c-29 79 -119 173 -201 211 l-63 29 -1032 3 -1031 2 -21 -34z"/>
<path d="M9426 2920 c-47 -81 -218 -269 -393 -434 -40 -37 -73 -70 -73 -72 0 -2 79 -4 175 -4 193 0 224 8 280 67 34 37 36 58 33 281 l-3 193 -19 -31z"/>
<path d="M2740 2649 c0 -91 3 -105 27 -146 38 -65 100 -93 211 -93 48 0 82 4 82 10 0 6 -4 10 -10 10 -17 0 -201 183 -252 252 -28 37 -52 68 -54 68 -2 0 -4 -45 -4 -101z"/>
</g>
<g id="layer107" fill="#f0f0f0" stroke="none">
<path d="M5073 8993 c42 -2 112 -2 155 0 42 1 7 3 -78 3 -85 0 -120 -2 -77 -3z"/>
<path d="M6752 8993 c37 -2 100 -2 140 0 40 1 10 3 -67 3 -77 0 -110 -1 -73 -3z"/>
<path d="M4443 8983 c48 -2 126 -2 175 0 48 1 8 3 -88 3 -96 0 -136 -2 -87 -3z"/>
<path d="M7153 8983 c48 -2 125 -2 170 0 45 1 6 3 -88 3 -93 0 -130 -2 -82 -3z"/>
<path d="M4118 8973 c28 -2 76 -2 105 0 28 2 5 3 -53 3 -58 0 -81 -1 -52 -3z"/>
<path d="M7632 8973 c37 -2 100 -2 140 0 40 1 10 3 -67 3 -77 0 -110 -1 -73 -3z"/>
<path d="M3798 8963 c28 -2 76 -2 105 0 28 2 5 3 -53 3 -58 0 -81 -1 -52 -3z"/>
<path d="M8038 8963 c28 -2 76 -2 105 0 28 2 5 3 -53 3 -58 0 -81 -1 -52 -3z"/>
<path d="M8348 8953 c12 -2 30 -2 40 0 9 3 -1 5 -23 4 -22 0 -30 -2 -17 -4z"/>
<path d="M3220 8681 c-97 -32 -193 -111 -238 -196 l-27 -50 -3 -1990 -2 -1990 32 -4 c91 -12 628 15 863 43 22 3 74 8 115 11 41 3 84 8 95 10 11 2 63 7 115 10 52 3 147 12 210 21 63 8 131 17 150 19 106 11 243 27 300 36 36 5 94 12 130 15 36 3 73 10 82 15 9 5 21 8 25 7 4 -1 31 2 58 6 28 4 65 9 84 11 18 2 41 7 51 10 63 20 80 406 80 1811 0 1241 -13 1679 -54 1843 -10 41 -14 46 -41 48 -16 1 -61 6 -99 12 -38 5 -73 8 -78 5 -5 -3 -14 -1 -21 5 -7 5 -28 13 -47 16 -19 3 -47 8 -62 11 -15 3 -30 5 -33 5 -3 -1 -19 6 -35 14 -40 21 -272 82 -417 110 -193 38 -440 72 -763 106 -347 36 -436 42 -470 30z"/>
<path d="M7678 8645 c-2 -1 -122 -5 -268 -9 -256 -6 -402 -13 -446 -21 -30 -6 -43 -44 -56 -164 -18 -158 -18 -2862 0 -3141 22 -345 39 -459 71 -458 9 1 36 -5 61 -12 25 -7 52 -14 60 -15 29 -4 74 -18 99 -31 13 -7 28 -11 33 -8 10 6 121 -37 126 -48 2 -5 13 -8 24 -8 11 0 50 -14 86 -32 37 -17 69 -32 72 -33 3 0 21 -8 40 -17 56 -25 146 -59 182 -68 18 -5 47 -13 63 -19 17 -5 50 -15 75 -22 25 -6 65 -18 90 -26 24 -8 62 -16 85 -19 22 -3 54 -9 70 -14 17 -5 113 -28 215 -50 321 -71 335 -67 -275 -73 -427 -4 -564 -8 -655 -21 -63 -9 -153 -21 -200 -26 -131 -16 -262 -40 -276 -51 -18 -14 -31 -79 -46 -219 -18 -172 -18 -917 0 -1060 15 -118 37 -176 66 -173 20 1 211 10 421 19 111 4 195 16 360 50 17 3 50 10 75 14 25 5 88 18 140 30 122 26 474 87 610 105 156 20 387 13 468 -14 37 -13 68 -18 77 -14 36 21 192 186 242 256 l56 79 8 106 c5 59 12 243 15 409 6 275 6 306 -11 350 -34 92 -102 138 -224 153 l-66 7 68 2 67 1 0 2020 c0 1969 0 2021 -19 2070 -25 65 -82 134 -140 172 l-46 29 -697 -2 c-383 0 -698 -2 -700 -4z"/>
<path d="M3060 4331 c-85 -4 -164 -11 -175 -16 -84 -36 -120 -98 -118 -205 1 -41 5 -87 10 -103 l8 -27 52 37 c28 21 117 92 198 158 180 147 192 155 205 135 5 -8 10 -51 10 -95 0 -85 22 -310 41 -422 19 -116 58 -262 106 -393 66 -183 81 -208 153 -250 14 -7 83 -49 153 -92 247 -151 427 -226 612 -255 106 -16 546 -24 640 -11 28 4 111 10 185 14 74 3 139 10 144 14 18 17 36 133 47 303 16 260 6 988 -15 1087 -26 120 5 112 -418 116 -1109 9 -1700 11 -1838 5z"/>
<path d="M9344 2803 c-21 -27 -92 -103 -158 -170 l-119 -123 99 0 c169 0 195 27 213 219 6 63 9 116 7 118 -2 2 -21 -18 -42 -44z"/>
<path d="M2851 2587 c6 -14 22 -30 35 -36 31 -14 30 -12 -11 28 -32 30 -34 31 -24 8z"/>
</g>


</svg>