<!DOCTYPE svg PUBLIC "-//W3C//DTD SVG 20010904//EN" "http://www.w3.org/TR/2001/REC-SVG-20010904/DTD/svg10.dtd">
<svg version="1.0" xmlns="http://www.w3.org/2000/svg" width="40px" height="40px" viewBox="0 0 400 400" preserveAspectRatio="xMidYMid meet">
<g id="layer101" fill="#686868" stroke="none">
 <path d="M115 387 c-42 -20 -92 -74 -106 -115 -17 -52 -7 -144 21 -184 43 -63 83 -83 170 -83 87 0 127 20 171 83 20 30 24 48 24 112 0 87 -20 127 -83 171 -42 29 -149 37 -197 16z"/>
 </g>
<g id="layer102" fill="#fbfbfb" stroke="none">
 <path d="M115 387 c-42 -20 -92 -74 -106 -115 -17 -52 -7 -144 21 -184 43 -63 83 -83 170 -83 87 0 127 20 171 83 20 30 24 48 24 112 0 87 -20 127 -83 171 -42 29 -149 37 -197 16z m170 -187 l0 -85 -85 0 -85 0 -3 74 c-2 41 -1 80 2 88 4 11 25 13 88 11 l83 -3 0 -85z"/>
 <path d="M130 230 c0 -22 5 -40 10 -40 6 0 10 8 10 18 0 44 67 59 94 20 8 -12 13 -25 10 -30 -3 -4 0 -8 5 -8 6 0 11 18 11 40 l0 40 -70 0 -70 0 0 -40z"/>
 <path d="M170 215 c-16 -20 3 -45 35 -45 25 0 38 21 29 45 -8 19 -48 19 -64 0z"/>
 <path d="M237 164 c-14 -15 -6 -34 14 -34 14 0 19 5 17 17 -3 18 -20 27 -31 17z"/>
 </g>

</svg>