<!DOCTYPE svg PUBLIC "-//W3C//DTD SVG 20010904//EN" "http://www.w3.org/TR/2001/REC-SVG-20010904/DTD/svg10.dtd">
<svg version="1.0" xmlns="http://www.w3.org/2000/svg" width="40px" height="40px" viewBox="0 0 400 400" preserveAspectRatio="xMidYMid meet">
<g id="layer101" fill="#6a6a6a" stroke="none">
 <path d="M115 383 c-74 -39 -115 -104 -115 -183 0 -113 87 -200 200 -200 212 0 278 284 88 381 -46 23 -131 25 -173 2z"/>
 </g>
<g id="layer102" fill="#cccccc" stroke="none">
 <path d="M115 383 c-74 -39 -115 -104 -115 -183 0 -113 87 -200 200 -200 212 0 278 284 88 381 -46 23 -131 25 -173 2z m147 -120 c22 -20 23 -46 3 -63 -11 -9 -13 -16 -5 -24 16 -16 12 -44 -9 -56 -11 -5 -40 -10 -65 -10 l-46 0 0 85 0 85 52 0 c34 0 58 -6 70 -17z"/>
 <path d="M190 230 c0 -13 7 -20 18 -20 26 0 34 11 21 27 -17 20 -39 16 -39 -7z"/>
 <path d="M188 174 c-11 -10 3 -34 19 -34 8 0 13 7 11 17 -3 18 -20 27 -30 17z"/>
 </g>

</svg>